<svg xmlns="http://www.w3.org/2000/svg" viewBox="0 0 64 64" width="64" height="64">
  <!-- Background circle -->
  <circle cx="32" cy="32" r="30" fill="#1a472a" stroke="#2d5a3d" stroke-width="2"/>

  <!-- Poker chip -->
  <circle cx="22" cy="38" r="12" fill="#c41e3a" stroke="#fff" stroke-width="2"/>
  <circle cx="22" cy="38" r="8" fill="none" stroke="#fff" stroke-width="1.5"/>
  <circle cx="22" cy="38" r="3" fill="#fff"/>
  <!-- Chip edge marks -->
  <line x1="22" y1="26" x2="22" y2="30" stroke="#fff" stroke-width="2"/>
  <line x1="22" y1="46" x2="22" y2="50" stroke="#fff" stroke-width="2"/>
  <line x1="10" y1="38" x2="14" y2="38" stroke="#fff" stroke-width="2"/>
  <line x1="30" y1="38" x2="34" y2="38" stroke="#fff" stroke-width="2"/>

  <!-- Playing card (Ace of Spades) -->
  <rect x="28" y="14" width="24" height="34" rx="3" fill="#fff" stroke="#333" stroke-width="1.5"/>
  <!-- Spade symbol -->
  <path d="M40 24 C40 24 32 32 32 36 C32 39 35 40 37 38 L37 42 L34 42 L34 44 L46 44 L46 42 L43 42 L43 38 C45 40 48 39 48 36 C48 32 40 24 40 24 Z" fill="#1a1a1a"/>
  <!-- Small spade top-left -->
  <text x="31" y="22" font-family="Georgia, serif" font-size="8" fill="#1a1a1a">A</text>
  <!-- Small spade symbol -->
  <path d="M33 26 C33 26 30 29 30 31 C30 32 31.5 32.5 32.5 31.5 L32.5 33 L31 33 L31 33.5 L35 33.5 L35 33 L33.5 33 L33.5 31.5 C34.5 32.5 36 32 36 31 C36 29 33 26 33 26 Z" fill="#1a1a1a"/>

  <!-- House symbol (home) -->
  <path d="M42 52 L42 58 L38 58 L38 54 L34 54 L34 58 L30 58 L30 52 L36 46 Z" fill="#2d5a3d" stroke="#1a472a" stroke-width="1"/>
</svg>